<svg xmlns="http://www.w3.org/2000/svg" width="162" height="162" viewBox="65 25 110 115" version="1.1">
  <path d="M 113.669 25.726 C 112.976 26.848, 114.774 49.602, 115.943 54.500 C 117.632 61.575, 118.334 71.676, 117.186 72.385 C 116.599 72.748, 114.674 70.909, 112.878 68.271 C 111.093 65.647, 109.335 63.275, 108.972 63 C 108.609 62.725, 104.159 57.100, 99.083 50.500 C 94.007 43.900, 88.965 38.084, 87.878 37.575 C 86.239 36.808, 85.143 37.477, 81.451 41.499 C 79.003 44.165, 77 46.646, 77 47.013 C 77 48.004, 83.273 53.544, 94.500 62.467 C 100 66.839, 104.725 70.660, 105 70.959 C 105.275 71.259, 107.192 72.955, 109.260 74.730 C 112.865 77.823, 112.927 77.980, 110.760 78.521 C 109.517 78.831, 105.208 78.390, 101.185 77.542 C 97.161 76.694, 91.086 75.967, 87.685 75.927 C 81.232 75.851, 72.575 74.738, 70 73.653 C 67.080 72.423, 65.799 74.587, 65.470 81.312 C 65.255 85.686, 65.564 88.223, 66.394 88.912 C 67.622 89.931, 77.259 89.283, 94.500 87.021 C 105.526 85.575, 111 85.733, 111 87.500 C 111 88.325, 110.582 89, 110.071 89 C 109.561 89, 108.548 89.586, 107.821 90.301 C 107.095 91.017, 100.875 96.056, 94 101.500 C 87.125 106.944, 80.905 111.983, 80.179 112.699 C 79.452 113.414, 78.439 114, 77.929 114 C 77.418 114, 77 114.741, 77 115.646 C 77 117.846, 85.184 126.508, 87.258 126.503 C 88.701 126.500, 99.014 113.774, 111.500 96.590 C 113.700 93.562, 115.807 91.065, 116.183 91.042 C 117.647 90.952, 117.977 94.925, 117.014 101.071 C 114.599 116.493, 113.107 136.448, 114.313 137.214 C 116.291 138.472, 126.663 138.114, 127.766 136.750 C 128.825 135.442, 127.841 119.541, 126.049 109 C 124.387 99.226, 124.379 91, 126.031 91 C 126.599 91, 127.351 91.787, 127.703 92.750 C 128.495 94.913, 152.796 126.380, 154.010 126.815 C 155.414 127.318, 165 117.763, 165 115.861 C 165 114.911, 164.213 113.881, 163.250 113.570 C 162.287 113.259, 160.150 111.767, 158.500 110.253 C 153.789 105.930, 136.007 91.663, 133.239 89.985 C 131.864 89.152, 130.911 88.027, 131.120 87.485 C 131.636 86.149, 146.956 86.377, 155 87.840 C 158.575 88.491, 164.650 89.130, 168.500 89.261 L 175.500 89.500 175.797 82.097 C 175.960 78.025, 175.717 74.317, 175.257 73.857 C 174.796 73.396, 172.862 73.470, 170.960 74.020 C 169.057 74.570, 161.650 75.453, 154.500 75.981 C 147.350 76.510, 139.928 77.406, 138.007 77.971 C 134.356 79.046, 129 79.361, 129 78.500 C 129 77.654, 133.188 73.717, 139.106 69 C 152.741 58.130, 164.016 48.783, 164.567 47.891 C 165.259 46.772, 158.527 38.982, 155.581 37.493 C 153.817 36.601, 152.675 37.689, 145.616 46.993 C 141.232 52.772, 135.865 59.525, 133.690 62 C 131.516 64.475, 129.121 67.948, 128.368 69.719 C 127.426 71.933, 126.524 72.754, 125.474 72.352 C 123.729 71.682, 124.058 64.526, 126.478 50.500 C 127.238 46.100, 128.003 38.675, 128.179 34 L 128.500 25.500 121.335 25.208 C 117.394 25.047, 113.945 25.280, 113.669 25.726" stroke="none" fill="#FFD700" fill-rule="evenodd"/>
</svg>
